<svg viewBox="0 0 800 500" preserveAspectRatio="none" xmlns="http://www.w3.org/2000/svg" xmlns:xlink="http://www.w3.org/1999/xlink" width="100%" id="blobSvg">
  <g transform="translate(144.38374710083008, -4.461589813232422)">
    <defs>
      <pattern id="pattern" x="0" y="0" width="28" height="49" patternUnits="userSpaceOnUse" fill="#d1d8e0">
        <path d="M13.99 9.25l13 7.5v15l-13 7.5L1 31.75v-15l12.99-7.5zM3 17.9v12.7l10.99 6.34 11-6.35V17.9l-11-6.34L3 17.9zM0 15l12.98-7.5V0h-2v6.35L0 12.69v2.3zm0 18.5L12.98 41v8h-2v-6.85L0 35.81v-2.3zM15 0v7.5L27.99 15H28v-2.31h-.01L17 6.35V0h-2zm0 49v-8l12.99-7.5H28v2.31h-.01L17 42.15V49h-2z"></path>
      </pattern>
    </defs>
    <path class="blob" d="M483,285.5Q468,321,453.5,354Q439,387,416.5,417.5Q394,448,357,456.5Q320,465,285,475Q250,485,214.5,476.5Q179,468,141.5,459Q104,450,84,417.5Q64,385,45,354Q26,323,25.5,286.5Q25,250,22,212.5Q19,175,40,144Q61,113,86,86Q111,59,145,44.5Q179,30,214.5,19Q250,8,287,15.5Q324,23,358,39Q392,55,414,85Q436,115,462,144Q488,173,493,211.5Q498,250,483,285.5Z" fill="url(#pattern)"></path>
  </g>
</svg>